<svg xmlns="http://www.w3.org/2000/svg" viewBox="0 0 399.04 398.77"><defs><style>.cls-1,.cls-2{fill:#fff;}.cls-1{stroke:#231f20;stroke-miterlimit:10;stroke-width:3px;}.cls-3{fill:#231f20;}</style></defs><title>Asset 1</title><g id="Layer_2" data-name="Layer 2"><g id="Layer_1-2" data-name="Layer 1"><path class="cls-1" d="M363.29,199.24l-53.86-17.9,42.62,28.58,36.05,49.86h0a197.26,197.26,0,0,1-31.33,59.81L338.56,277l-51.12-31.33L322.11,288l14.25,54.41a197.89,197.89,0,0,1-65.67,41.72l0,0,8.49-34-20.34-44,3.85,44.52-16.53,41.12a199.1,199.1,0,0,1-46.46,5.53h-.4a199.1,199.1,0,0,1-46.46-5.53l-16.53-41.12,3.85-44.52-20.34,44,8.49,34,0,0a197.89,197.89,0,0,1-65.67-41.72L76.93,288l34.67-42.32L60.48,277,42.26,319.59a197.26,197.26,0,0,1-31.33-59.81h0L47,209.92l42.62-28.58-53.86,17.9L4.37,233a199.56,199.56,0,0,1,6-92.59L83,120.88H17.61c3.75-8.7,13-25.07,13-25.07l81-33.74H74.23l-33.63,19A197.77,197.77,0,0,1,186.91,1.6h0l12.61,63.16L212.13,1.61h0A197.77,197.77,0,0,1,358.44,81.09l-33.63-19H287.44l81,33.74s9.27,16.37,13,25.07H316l72.64,19.54a199.56,199.56,0,0,1,6,92.59Z"/><polygon class="cls-2" points="202.62 236.5 202.62 217.81 225.39 198.88 173.65 198.88 196.42 217.81 196.42 236.5 148.84 267.17 123.47 249.66 123.47 222.98 132.63 213.82 132.63 193.29 96.72 171.31 96.72 131.67 125.22 151.29 163.11 149.23 163.11 178.44 171.1 144.14 128.35 127.33 100.2 127.33 100.2 94.52 144.69 66.37 169.33 66.37 199.52 93.34 229.71 66.37 254.35 66.37 298.84 94.52 298.84 127.33 270.69 127.33 227.94 144.14 235.93 178.44 235.93 149.23 273.82 151.29 302.32 131.67 302.32 171.31 266.41 193.29 266.41 213.82 275.57 222.98 275.57 249.66 250.2 267.17 202.62 236.5"/><path class="cls-3" d="M253.92,67.87l43.42,27.48v30.48H270.41l-44.23,17.39,11.25,48.27V150.82l36.82,2,26.57-18.29v35.94l-35.91,22v22l9.16,9.16v25.28l-23.9,16.49-46-29.69V218.52l25.42-21.14h-60l25.42,21.14v17.16l-46,29.69L125,248.88V223.6l9.16-9.16v-22l-35.91-22V134.53l26.57,18.29,36.82-2v40.67l11.25-48.27-44.23-17.39H101.7V95.35l43.42-27.48h23.64l30.76,27.48,30.76-27.48h23.64m.87-3H229.14l-.86.76L199.52,91.32,170.76,65.63l-.86-.76H144.25l-.73.46L100.1,92.81l-1.4.89v35.13h29.36l41.29,16.23-4.74,20.34V147.65l-3.16.17-35.8,2L99.92,132.06l-4.7-3.24v43.33l1.43.88,34.48,21.1v19.06l-8.28,8.29-.88.87v28.1l1.3.9,23.9,16.49,1.64,1.13,1.69-1.08,46.05-29.69,1.37-.89v-20.2l-1.08-.9-19-15.83h43.44l-19,15.83-1.08.9v20.2l1.37.89,46,29.69,1.69,1.08,1.64-1.13,23.9-16.49,1.3-.9v-28.1l-.88-.87-8.28-8.29V194.13L302.39,173l1.43-.88V128.82l-4.7,3.24-25.73,17.71-35.8-2-3.16-.17V165.4l-4.74-20.34L271,128.83h29.36V93.7l-1.4-.89L255.52,65.33l-.73-.46Z"/><polygon class="cls-1" points="244.67 271.4 244.67 316.75 212.25 346.24 199.52 317.37 186.79 346.24 154.37 316.75 154.37 271.4 175.25 257.94 223.79 257.94 244.67 271.4"/></g></g></svg>